<mxfile host="app.diagrams.net" modified="2023-04-15T03:29:56.061Z" agent="Mozilla/5.0 (Windows NT 10.0; Win64; x64) AppleWebKit/537.36 (KHTML, like Gecko) Chrome/111.0.0.0 Safari/537.36" etag="kJPJgI3Fs1K__pefO_02" version="21.1.8" type="github">
  <diagram name="第 1 页" id="AeDvUmpeQmBND_ZecGXm">
    <mxGraphModel dx="875" dy="478" grid="1" gridSize="10" guides="1" tooltips="1" connect="1" arrows="1" fold="1" page="1" pageScale="1" pageWidth="827" pageHeight="1169" math="0" shadow="0">
      <root>
        <mxCell id="0" />
        <mxCell id="1" parent="0" />
        <mxCell id="OwBKvb31p_aBgglgE8TD-2" value="" style="rounded=0;whiteSpace=wrap;html=1;fontSize=13;" vertex="1" parent="1">
          <mxGeometry x="400" y="160" width="230" height="160" as="geometry" />
        </mxCell>
        <mxCell id="OwBKvb31p_aBgglgE8TD-16" value="" style="rounded=0;whiteSpace=wrap;html=1;fontSize=13;" vertex="1" parent="1">
          <mxGeometry x="460" y="202.5" width="60" height="37.5" as="geometry" />
        </mxCell>
        <mxCell id="OwBKvb31p_aBgglgE8TD-1" value="" style="rounded=0;whiteSpace=wrap;html=1;fontSize=13;" vertex="1" parent="1">
          <mxGeometry x="110" y="270" width="190" height="90" as="geometry" />
        </mxCell>
        <mxCell id="OwBKvb31p_aBgglgE8TD-3" value="" style="rounded=0;whiteSpace=wrap;html=1;fontSize=13;" vertex="1" parent="1">
          <mxGeometry x="380" y="410" width="280" height="110" as="geometry" />
        </mxCell>
        <mxCell id="OwBKvb31p_aBgglgE8TD-4" value="字符串常量池" style="text;html=1;align=center;verticalAlign=middle;resizable=0;points=[];autosize=1;strokeColor=none;fillColor=none;fontSize=13;" vertex="1" parent="1">
          <mxGeometry x="500" y="540" width="100" height="30" as="geometry" />
        </mxCell>
        <mxCell id="OwBKvb31p_aBgglgE8TD-8" value="&quot;abc”" style="rounded=0;whiteSpace=wrap;html=1;fontSize=13;" vertex="1" parent="1">
          <mxGeometry x="430" y="455" width="80" height="20" as="geometry" />
        </mxCell>
        <mxCell id="OwBKvb31p_aBgglgE8TD-20" value="" style="rounded=0;whiteSpace=wrap;html=1;fontSize=13;" vertex="1" parent="1">
          <mxGeometry x="430" y="427.5" width="50" height="22.5" as="geometry" />
        </mxCell>
        <mxCell id="OwBKvb31p_aBgglgE8TD-9" value="0x001" style="text;html=1;strokeColor=none;fillColor=none;align=center;verticalAlign=middle;whiteSpace=wrap;rounded=0;fontSize=13;" vertex="1" parent="1">
          <mxGeometry x="430" y="425" width="50" height="30" as="geometry" />
        </mxCell>
        <mxCell id="OwBKvb31p_aBgglgE8TD-10" value="b:0x01" style="text;html=1;strokeColor=none;fillColor=none;align=center;verticalAlign=middle;whiteSpace=wrap;rounded=0;fontSize=13;" vertex="1" parent="1">
          <mxGeometry x="130" y="320" width="60" height="20" as="geometry" />
        </mxCell>
        <mxCell id="OwBKvb31p_aBgglgE8TD-11" value="a: 0x001" style="text;html=1;strokeColor=none;fillColor=none;align=center;verticalAlign=middle;whiteSpace=wrap;rounded=0;fontSize=13;" vertex="1" parent="1">
          <mxGeometry x="130" y="280" width="60" height="30" as="geometry" />
        </mxCell>
        <mxCell id="OwBKvb31p_aBgglgE8TD-12" value="" style="endArrow=classic;html=1;rounded=0;entryX=0;entryY=0.5;entryDx=0;entryDy=0;exitX=1;exitY=0.75;exitDx=0;exitDy=0;fontSize=13;" edge="1" parent="1" source="OwBKvb31p_aBgglgE8TD-11" target="OwBKvb31p_aBgglgE8TD-9">
          <mxGeometry width="50" height="50" relative="1" as="geometry">
            <mxPoint x="360" y="400" as="sourcePoint" />
            <mxPoint x="410" y="350" as="targetPoint" />
          </mxGeometry>
        </mxCell>
        <mxCell id="OwBKvb31p_aBgglgE8TD-13" value="栈" style="text;html=1;align=center;verticalAlign=middle;resizable=0;points=[];autosize=1;strokeColor=none;fillColor=none;rotation=0;fontSize=13;" vertex="1" parent="1">
          <mxGeometry x="175" y="370" width="40" height="30" as="geometry" />
        </mxCell>
        <mxCell id="OwBKvb31p_aBgglgE8TD-14" value="0x001" style="text;html=1;strokeColor=none;fillColor=none;align=center;verticalAlign=middle;whiteSpace=wrap;rounded=0;fontSize=13;" vertex="1" parent="1">
          <mxGeometry x="460" y="210" width="60" height="30" as="geometry" />
        </mxCell>
        <mxCell id="OwBKvb31p_aBgglgE8TD-15" value="堆" style="text;html=1;align=center;verticalAlign=middle;resizable=0;points=[];autosize=1;strokeColor=none;fillColor=none;fontSize=13;" vertex="1" parent="1">
          <mxGeometry x="500" y="338" width="40" height="30" as="geometry" />
        </mxCell>
        <mxCell id="OwBKvb31p_aBgglgE8TD-17" value="0x01" style="rounded=0;whiteSpace=wrap;html=1;fontSize=13;" vertex="1" parent="1">
          <mxGeometry x="460" y="175" width="30" height="27.5" as="geometry" />
        </mxCell>
        <mxCell id="OwBKvb31p_aBgglgE8TD-18" value="" style="endArrow=classic;html=1;rounded=0;entryX=0;entryY=0;entryDx=0;entryDy=0;exitX=1;exitY=0.5;exitDx=0;exitDy=0;fontSize=13;" edge="1" parent="1" source="OwBKvb31p_aBgglgE8TD-10" target="OwBKvb31p_aBgglgE8TD-16">
          <mxGeometry width="50" height="50" relative="1" as="geometry">
            <mxPoint x="360" y="400" as="sourcePoint" />
            <mxPoint x="430" y="330" as="targetPoint" />
          </mxGeometry>
        </mxCell>
        <mxCell id="OwBKvb31p_aBgglgE8TD-19" value="" style="endArrow=classic;html=1;rounded=0;entryX=0.25;entryY=0;entryDx=0;entryDy=0;exitX=0;exitY=1;exitDx=0;exitDy=0;fontSize=13;" edge="1" parent="1" source="OwBKvb31p_aBgglgE8TD-14" target="OwBKvb31p_aBgglgE8TD-9">
          <mxGeometry width="50" height="50" relative="1" as="geometry">
            <mxPoint x="360" y="400" as="sourcePoint" />
            <mxPoint x="410" y="350" as="targetPoint" />
          </mxGeometry>
        </mxCell>
      </root>
    </mxGraphModel>
  </diagram>
</mxfile>
